<svg width="884" height="97" viewBox="0 0 884 97" fill="none" xmlns="http://www.w3.org/2000/svg">
<path d="M0.5 96.8056V93.5477C0.5 76.9323 17.1358 63.412 37.5798 63.412H404.87C428.12 63.4934 439.845 54.1267 442.451 38C444.383 51.8395 456.459 63.412 478.929 63.412H846.42C866.864 63.412 883.5 76.9323 883.5 93.5477V96.8056" stroke="#5B3686" stroke-miterlimit="10"/>
<path d="M662.5 63V97" stroke="#5B3686" stroke-miterlimit="10"/>
<path d="M731.3 63.4661C731.3 64.2805 730.5 64.9321 729.5 64.9321H683.3C682.3 64.9321 681.5 64.2805 681.5 63.4661C681.5 62.6516 682.3 62 683.3 62H729.5C730.5 62.0814 731.3 62.733 731.3 63.4661Z" fill="#781BFA"/>
<path d="M442.5 0V97" stroke="#5B3686" stroke-miterlimit="10"/>
<path d="M220.5 63V97" stroke="#5B3686" stroke-miterlimit="10"/>
<path d="M216.3 63.4661C216.3 64.2805 215.5 64.9321 214.5 64.9321H168.3C167.3 64.9321 166.5 64.2805 166.5 63.4661C166.5 62.6516 167.3 62 168.3 62H214.5C215.5 62.0814 216.3 62.733 216.3 63.4661Z" fill="#781BFA"/>
</svg>
