<svg width="1668" height="767" viewBox="0 0 1668 767" fill="none" xmlns="http://www.w3.org/2000/svg">
<mask id="mask0_2324_2479" style="mask-type:alpha" maskUnits="userSpaceOnUse" x="0" y="0" width="1668" height="767">
<path d="M1668 751C1668 759.837 1660.84 767 1652 767H16C7.16349 767 0 759.837 0 751V16C0 7.16344 7.16344 0 16 0H1137.86C1146.17 0 1152.96 6.40454 1154.83 14.4984C1165.48 60.618 1206.81 95 1256.16 95C1305.52 95 1346.85 60.618 1357.5 14.4983C1359.37 6.40453 1366.16 0 1374.47 0H1652C1660.84 0 1668 7.16344 1668 16V751Z" fill="#0059D0"/>
</mask>
<g mask="url(#mask0_2324_2479)">
<rect width="1668" height="767" fill="black"/>
</g>
</svg>
