<svg width="107" height="107" viewBox="0 0 107 107" fill="none" xmlns="http://www.w3.org/2000/svg">
<g clip-path="url(#clip0_139_24)">
<path d="M106.424 90.4139C106.345 90.2779 87.6471 59.6847 83.4326 52.7874C82.7023 51.5921 81.0221 51.4411 80.0908 52.4882L71.5239 62.1158L55.7564 34.8085V30.0702H73.2977C74.1422 30.0702 74.9038 29.5613 75.227 28.7812C75.5503 28.001 75.3715 27.1026 74.7745 26.5054L69.9864 21.7172L74.7745 16.9291C75.3717 16.3319 75.5503 15.4335 75.227 14.6533C74.9038 13.873 74.1424 13.3643 73.2977 13.3643H53.6682C52.5148 13.3643 51.5799 14.2992 51.5799 15.4525V34.8087L35.9513 61.879L29.0285 52.6254C28.1632 51.4685 26.4159 51.5224 25.6188 52.7179L0.568241 90.2936C-0.354764 91.6409 0.594344 93.5529 2.29731 93.5529H2.30462C109.643 93.5529 104.417 93.5557 104.666 93.5506C106.253 93.5177 107.226 91.7855 106.424 90.4139ZM81.3379 57.3693L100.898 89.3764H87.2624L73.7237 65.9263L81.3379 57.3693ZM53.6682 39.5446C53.7398 39.6684 58.0151 47.0744 63.4157 56.4296L59.8907 58.7953L54.8309 55.3996C54.1272 54.9273 53.2075 54.9275 52.5036 55.3996L47.445 58.7951L43.92 56.4293C48.9515 47.7145 53.0676 40.585 53.6682 39.5446ZM65.5562 23.1938L68.2561 25.8937H55.7564V17.5408H68.2563L65.5564 20.2406C64.7407 21.0561 64.7407 22.3784 65.5562 23.1938ZM41.8272 60.0545L46.2814 63.0441C46.9854 63.5166 47.9055 63.5164 48.609 63.0441L53.6676 59.6486L58.7272 63.0441C59.4309 63.5164 60.3506 63.5164 61.0545 63.0441L65.5088 60.0547C71.5787 70.5691 78.5024 82.5627 82.4361 89.3764H24.8984C28.2396 83.5893 35.4505 71.0991 41.8272 60.0545ZM27.4544 57.4935L33.6793 65.8141L20.0758 89.3764H6.1992L27.4544 57.4935Z" fill="#062A26"/>
<path d="M29.4442 42.5993C35.2015 42.5993 39.8854 37.9153 39.8854 32.158C39.8854 26.4007 35.2015 21.7168 29.4442 21.7168C23.6869 21.7168 19.0029 26.4007 19.0029 32.158C19.0029 37.9153 23.6867 42.5993 29.4442 42.5993ZM29.4442 25.8933C32.8985 25.8933 35.7089 28.7037 35.7089 32.158C35.7089 35.6124 32.8985 38.4228 29.4442 38.4228C25.9898 38.4228 23.1794 35.6124 23.1794 32.158C23.1794 28.7037 25.9898 25.8933 29.4442 25.8933Z" fill="#062A26"/>
</g>
<defs>
<clipPath id="clip0_139_24">
<rect width="106.918" height="106.918" fill="white"/>
</clipPath>
</defs>
</svg>
