<svg width="883" height="97" viewBox="0 0 883 97" fill="none" xmlns="http://www.w3.org/2000/svg">
<path d="M0.5 96.8056V93.5477C0.5 76.9323 17.1 63.412 37.5 63.412H404C427.2 63.4934 438.9 54.1267 441.5 38C443.428 51.8395 455.478 63.412 477.9 63.412H844.6C865 63.412 881.6 76.9323 881.6 93.5477V96.8056" stroke="#C4C4C2" stroke-miterlimit="10"/>
<path d="M441.5 0V97" stroke="#C4C4C2" stroke-miterlimit="10"/>
<path d="M216.3 63.4661C216.3 64.2805 215.5 64.9321 214.5 64.9321H168.3C167.3 64.9321 166.5 64.2805 166.5 63.4661C166.5 62.6516 167.3 62 168.3 62H214.5C215.5 62.0814 216.3 62.733 216.3 63.4661Z" fill="#781BFA"/>
<path d="M721.3 63.4661C721.3 64.2805 720.5 64.9321 719.5 64.9321H673.3C672.3 64.9321 671.5 64.2805 671.5 63.4661C671.5 62.6516 672.3 62 673.3 62H719.5C720.5 62.0814 721.3 62.733 721.3 63.4661Z" fill="#781BFA"/>
</svg>
