<svg width="599" height="119" viewBox="0 0 599 119" fill="none" xmlns="http://www.w3.org/2000/svg">
<mask id="path-1-inside-1_149_63" fill="white">
<path fill-rule="evenodd" clip-rule="evenodd" d="M598.038 113C598.038 116.314 595.352 119 592.038 119H6.77261C0.874029 119 -2.09829 110.523 1.68528 105.998C12.1376 93.4964 18.4518 77.2542 18.4518 59.5C18.4518 41.7458 12.1376 25.5036 1.68528 13.0023C-2.09829 8.4771 0.873986 0 6.77257 0H592.038C595.351 0 598.038 2.68629 598.038 6V113Z"/>
</mask>
<path fill-rule="evenodd" clip-rule="evenodd" d="M598.038 113C598.038 116.314 595.352 119 592.038 119H6.77261C0.874029 119 -2.09829 110.523 1.68528 105.998C12.1376 93.4964 18.4518 77.2542 18.4518 59.5C18.4518 41.7458 12.1376 25.5036 1.68528 13.0023C-2.09829 8.4771 0.873986 0 6.77257 0H592.038C595.351 0 598.038 2.68629 598.038 6V113Z" fill="#191A18"/>
<path fill-rule="evenodd" clip-rule="evenodd" d="M592.038 119V117.5H6.77261V119V120.5H592.038V119ZM1.68528 105.998L2.83605 106.96C13.508 94.1958 19.9518 77.6151 19.9518 59.5H18.4518H16.9518C16.9518 76.8933 10.7672 92.797 0.53452 105.035L1.68528 105.998ZM18.4518 59.5H19.9518C19.9518 41.3849 13.508 24.8042 2.83604 12.0402L1.68528 13.0023L0.534517 13.9645C10.7672 26.203 16.9518 42.1067 16.9518 59.5H18.4518ZM6.77257 0V1.5H592.038V0V-1.5H6.77257V0ZM598.038 6H596.538V113H598.038H599.538V6H598.038ZM592.038 0V1.5C594.523 1.5 596.538 3.51473 596.538 6H598.038H599.538C599.538 1.85786 596.18 -1.5 592.038 -1.5V0ZM1.68528 13.0023L2.83604 12.0402C1.37059 10.2875 1.13671 7.63859 2.00251 5.33116C2.86628 3.02912 4.63994 1.5 6.77257 1.5V0V-1.5C3.00661 -1.5 0.34484 1.20942 -0.806274 4.27725C-1.95537 7.33968 -1.7836 11.192 0.534517 13.9645L1.68528 13.0023ZM6.77261 119V117.5C4.63998 117.5 2.86631 115.971 2.00253 113.669C1.13672 111.361 1.37059 108.713 2.83605 106.96L1.68528 105.998L0.53452 105.035C-1.7836 107.808 -1.95535 111.66 -0.80625 114.723C0.344876 117.791 3.00665 120.5 6.77261 120.5V119ZM592.038 119V120.5C596.18 120.5 599.538 117.142 599.538 113H598.038H596.538C596.538 115.485 594.523 117.5 592.038 117.5V119Z" fill="#D3ED31" mask="url(#path-1-inside-1_149_63)"/>
</svg>
