<svg width="599" height="119" viewBox="0 0 599 119" fill="none" xmlns="http://www.w3.org/2000/svg">
<mask id="path-1-inside-1_149_62" fill="white">
<path d="M591.289 0C597.2 0 600.169 8.51533 596.362 13.0366C585.84 25.5332 579.484 41.762 579.484 59.5C579.484 77.238 585.84 93.4668 596.362 105.963C600.169 110.485 597.2 119 591.289 119H6.00001C2.6863 119 0 116.314 0 113V6C0 2.68629 2.68629 0 6 0H591.289Z"/>
</mask>
<path d="M591.289 0C597.2 0 600.169 8.51533 596.362 13.0366C585.84 25.5332 579.484 41.762 579.484 59.5C579.484 77.238 585.84 93.4668 596.362 105.963C600.169 110.485 597.2 119 591.289 119H6.00001C2.6863 119 0 116.314 0 113V6C0 2.68629 2.68629 0 6 0H591.289Z" fill="#191A18"/>
<path d="M596.362 105.963L595.214 106.93L596.362 105.963ZM596.362 13.0366L595.214 12.0704L596.362 13.0366ZM596.362 13.0366L595.214 12.0704C584.471 24.8293 577.984 41.3979 577.984 59.5H579.484H580.984C580.984 42.1261 587.208 26.2371 597.509 14.0027L596.362 13.0366ZM579.484 59.5H577.984C577.984 77.6021 584.471 94.1707 595.214 106.93L596.362 105.963L597.509 104.997C587.208 92.7629 580.984 76.8739 580.984 59.5H579.484ZM591.289 119V117.5H6.00001V119V120.5H591.289V119ZM0 113H1.5V6H0H-1.5V113H0ZM6 0V1.5H591.289V0V-1.5H6V0ZM0 6H1.5C1.5 3.51472 3.51472 1.5 6 1.5V0V-1.5C1.85786 -1.5 -1.5 1.85786 -1.5 6H0ZM6.00001 119V117.5C3.51472 117.5 1.5 115.485 1.5 113H0H-1.5C-1.5 117.142 1.85787 120.5 6.00001 120.5V119ZM596.362 105.963L595.214 106.93C596.688 108.68 596.929 111.336 596.064 113.653C595.202 115.964 593.425 117.5 591.289 117.5V119V120.5C595.064 120.5 597.727 117.778 598.875 114.702C600.021 111.63 599.842 107.768 597.509 104.997L596.362 105.963ZM596.362 13.0366L597.509 14.0027C599.842 11.2321 600.021 7.36968 598.875 4.29845C597.727 1.22201 595.064 -1.5 591.289 -1.5V0V1.5C593.425 1.5 595.202 3.03566 596.064 5.34719C596.929 7.66394 596.688 10.3198 595.214 12.0704L596.362 13.0366Z" fill="#303030" mask="url(#path-1-inside-1_149_62)"/>
</svg>
