<svg width="93" height="111" viewBox="0 0 93 111" fill="none" xmlns="http://www.w3.org/2000/svg">
<path d="M78.0965 31.7096H14.1592L27.1416 18.3721H65.3579L78.0965 31.7096Z" stroke="#062A26" stroke-width="3.4" stroke-miterlimit="10" stroke-linecap="round" stroke-linejoin="round"/>
<path d="M67.0789 45.5529L78.0963 31.71H14.1592L46.2496 71.7236L62.7871 50.9438" stroke="#062A26" stroke-width="3.4" stroke-miterlimit="10" stroke-linecap="round" stroke-linejoin="round"/>
<path d="M27.1396 18.3721L36.6938 31.7096L46.2477 18.3721L55.7238 31.7096L65.356 18.3721" stroke="#062A26" stroke-width="3.4" stroke-miterlimit="10" stroke-linecap="round" stroke-linejoin="round"/>
<path d="M36.6943 31.71L46.2483 71.7221L55.7244 31.71" stroke="#062A26" stroke-width="3.4" stroke-miterlimit="10" stroke-linecap="round" stroke-linejoin="round"/>
<path d="M46.248 1.7002V8.36896" stroke="#062A26" stroke-width="3.4" stroke-miterlimit="10" stroke-linecap="round" stroke-linejoin="round"/>
<path d="M33.1777 4.1123L35.3562 10.3789" stroke="#062A26" stroke-width="3.4" stroke-miterlimit="10" stroke-linecap="round" stroke-linejoin="round"/>
<path d="M59.3201 4.1123L57.1416 10.3789" stroke="#062A26" stroke-width="3.4" stroke-miterlimit="10" stroke-linecap="round" stroke-linejoin="round"/>
<path d="M44.4854 94.0804H61.8782C64.1396 94.0804 66.3561 92.3408 67.0002 90.0537" stroke="#062A26" stroke-width="3.4" stroke-miterlimit="10" stroke-linecap="round" stroke-linejoin="round"/>
<path d="M80.3932 93.1745L89.0668 85.2203C91.1254 83.3354 91.4598 79.7909 89.6737 77.5152C87.8016 75.1236 84.4264 74.7908 82.1607 76.7746L67.0013 90.0531C67.1551 89.5142 67.2311 88.9431 67.2187 88.3505C67.1592 85.2977 64.6946 82.8931 61.7788 82.8931H48.1345C45.8709 82.8931 43.65 82.159 41.8477 80.7248C39.4547 78.8227 36.4711 77.6913 33.2335 77.6913C29.682 77.6913 26.432 79.0524 23.9365 81.3046C22.7779 82.3502 21.2831 82.8933 19.7534 82.8933H14.4404V104.824H21.4859C22.1051 104.824 22.7223 104.918 23.315 105.105L32.5424 108.01C34.2546 108.549 36.0345 108.823 37.8224 108.823H59.9023C62.1108 108.823 64.2432 107.984 65.9043 106.462L75.3468 97.8013" stroke="#062A26" stroke-width="3.4" stroke-miterlimit="10" stroke-linecap="round" stroke-linejoin="round"/>
<path d="M1.7002 96.9054V108.823H14.4401V78.8135H1.7002V89.8894" stroke="#062A26" stroke-width="3.4" stroke-miterlimit="10" stroke-linecap="round" stroke-linejoin="round"/>
<path d="M8.07129 90.4838V87.1494" stroke="#062A26" stroke-width="3.4" stroke-miterlimit="10" stroke-linecap="round" stroke-linejoin="round"/>
</svg>
