<svg width="101" height="101" viewBox="0 0 101 101" fill="none" xmlns="http://www.w3.org/2000/svg">
<path d="M59.954 10.7855C60.1102 10.8315 60.2722 10.8552 60.4351 10.8556C60.7942 10.8553 61.1437 10.7393 61.4316 10.5247C61.7196 10.3101 61.9308 10.0085 62.0339 9.6645L63.9751 3.20095C64.1023 2.77649 64.0556 2.3189 63.8454 1.92885C63.6351 1.53879 63.2786 1.24822 62.8541 1.12106C62.4297 0.993899 61.9721 1.04056 61.582 1.25079C61.192 1.46101 60.9014 1.81757 60.7742 2.24203L58.833 8.70557C58.77 8.91574 58.7491 9.13626 58.7713 9.35454C58.7936 9.57281 58.8586 9.78456 58.9627 9.9777C59.0668 10.1708 59.2079 10.3416 59.378 10.4802C59.5481 10.6188 59.7438 10.7225 59.954 10.7855Z" fill="#062A26"/>
<path d="M70.9686 13.4587C71.3577 13.6703 71.8149 13.7188 72.2396 13.5935C72.6644 13.4682 73.0221 13.1794 73.234 12.7905L76.4683 6.83311C76.573 6.64027 76.6388 6.42868 76.6617 6.21043C76.6847 5.99218 76.6645 5.77154 76.6022 5.56111C76.5399 5.35067 76.4368 5.15457 76.2987 4.98399C76.1607 4.81341 75.9903 4.6717 75.7975 4.56694C75.6047 4.46218 75.3931 4.39644 75.1748 4.37345C74.9566 4.35046 74.7359 4.37069 74.5255 4.43298C74.3151 4.49526 74.119 4.59838 73.9484 4.73645C73.7778 4.87453 73.6361 5.04485 73.5313 5.23769L70.2971 11.1934C70.1924 11.3862 70.1267 11.5978 70.1038 11.816C70.081 12.0342 70.1013 12.2548 70.1636 12.4651C70.226 12.6755 70.3292 12.8715 70.4673 13.042C70.6054 13.2125 70.7758 13.3541 70.9686 13.4587Z" fill="#062A26"/>
<path d="M83.4765 18.9061C83.7199 18.9063 83.9603 18.8533 84.1811 18.7509C84.4018 18.6484 84.5975 18.499 84.7545 18.313L89.1465 13.0974C89.2912 12.9301 89.4012 12.7358 89.4702 12.5257C89.5392 12.3155 89.5657 12.0938 89.5484 11.8733C89.531 11.6529 89.47 11.438 89.369 11.2413C89.2679 11.0446 89.1288 10.8699 88.9597 10.7273C88.7906 10.5848 88.5949 10.4772 88.3839 10.4109C88.173 10.3446 87.9509 10.3208 87.7307 10.3409C87.5104 10.3611 87.2964 10.4248 87.1009 10.5283C86.9055 10.6318 86.7326 10.7731 86.5922 10.944L82.2002 16.1596C81.9953 16.403 81.8642 16.6997 81.8222 17.015C81.7803 17.3303 81.8292 17.6511 81.9632 17.9395C82.0973 18.228 82.3109 18.4722 82.579 18.6434C82.847 18.8146 83.1584 18.9058 83.4765 18.9061Z" fill="#062A26"/>
<path d="M93.6653 27.2053C94.0581 27.2053 94.4385 27.0669 94.7395 26.8143L99.9183 22.4708C100.247 22.183 100.45 21.7778 100.484 21.3421C100.517 20.9064 100.379 20.4748 100.098 20.14C99.8173 19.8052 99.4164 19.5937 98.9815 19.551C98.5466 19.5083 98.1122 19.6377 97.7716 19.9114L92.5927 24.255C92.3308 24.4755 92.1429 24.7713 92.0546 25.1022C91.9662 25.433 91.9817 25.7831 92.099 26.1048C92.2162 26.4266 92.4295 26.7046 92.7099 26.9011C92.9904 27.0976 93.3245 27.2032 93.6669 27.2036L93.6653 27.2053Z" fill="#062A26"/>
<path d="M15.5648 18.313C15.7052 18.4839 15.8781 18.6252 16.0736 18.7287C16.269 18.8322 16.4831 18.8959 16.7033 18.9161C16.9235 18.9362 17.1456 18.9124 17.3566 18.8461C17.5676 18.7798 17.7633 18.6722 17.9324 18.5297C18.1014 18.3871 18.2406 18.2124 18.3416 18.0157C18.4426 17.819 18.5036 17.6041 18.521 17.3837C18.5384 17.1632 18.5118 16.9415 18.4428 16.7313C18.3738 16.5212 18.2638 16.3269 18.1191 16.1596L13.7271 10.944C13.4397 10.6116 13.0329 10.4059 12.5948 10.3714C12.1568 10.3369 11.7227 10.4763 11.3868 10.7595C11.0508 11.0428 10.84 11.447 10.7999 11.8845C10.7599 12.3221 10.8938 12.7579 11.1728 13.0974L15.5648 18.313Z" fill="#062A26"/>
<path d="M27.0854 12.7866C27.19 12.9794 27.3317 13.1497 27.5021 13.2878C27.6726 13.426 27.8686 13.5291 28.079 13.5915C28.2893 13.6539 28.5099 13.6742 28.7281 13.6513C28.9463 13.6284 29.1579 13.5628 29.3507 13.4581C29.5436 13.3535 29.7139 13.2119 29.852 13.0414C29.9901 12.8709 30.0933 12.6749 30.1557 12.4646C30.218 12.2542 30.2384 12.0336 30.2155 11.8154C30.1926 11.5972 30.127 11.3856 30.0223 11.1928L26.788 5.23378C26.5765 4.84432 26.2189 4.55486 25.7939 4.42907C25.3689 4.30328 24.9113 4.35147 24.5219 4.56304C24.1324 4.7746 23.8429 5.13222 23.7172 5.5572C23.5914 5.98219 23.6396 6.43974 23.8511 6.8292L27.0854 12.7866Z" fill="#062A26"/>
<path d="M5.63326 26.8563C5.80598 26.9986 6.00555 27.1048 6.22012 27.1685C6.43468 27.2323 6.65986 27.2522 6.88229 27.2272C7.10472 27.2022 7.31986 27.1328 7.51493 27.0231C7.71001 26.9133 7.88103 26.7655 8.01786 26.5883C8.15469 26.4112 8.25452 26.2084 8.31144 25.9919C8.36836 25.7754 8.38119 25.5497 8.34919 25.3282C8.31718 25.1067 8.24098 24.8938 8.12512 24.7023C8.00926 24.5108 7.8561 24.3445 7.67473 24.2134L2.7331 20.3961C2.56037 20.2537 2.3608 20.1475 2.14624 20.0838C1.93167 20.0201 1.70649 20.0001 1.48406 20.0251C1.26163 20.0501 1.0465 20.1195 0.851423 20.2293C0.656351 20.339 0.485323 20.4869 0.348495 20.664C0.211668 20.8411 0.111831 21.044 0.0549147 21.2604C-0.00200194 21.4769 -0.0148382 21.7026 0.0171683 21.9241C0.0491748 22.1457 0.125371 22.3585 0.241233 22.55C0.357095 22.7415 0.510258 22.9078 0.691629 23.039L5.63326 26.8563Z" fill="#062A26"/>
<path d="M38.2849 9.66449C38.388 10.0085 38.5992 10.3101 38.8872 10.5247C39.1751 10.7392 39.5246 10.8553 39.8837 10.8556C40.0466 10.8552 40.2086 10.8315 40.3648 10.7855C40.575 10.7225 40.7707 10.6188 40.9408 10.4802C41.1109 10.3416 41.252 10.1708 41.3561 9.9777C41.4602 9.78456 41.5253 9.57281 41.5475 9.35453C41.5698 9.13626 41.5488 8.91574 41.4858 8.70557L39.5446 2.24203C39.4816 2.03186 39.3779 1.83614 39.2393 1.66607C39.1007 1.49599 38.9299 1.35487 38.7368 1.25078C38.5437 1.14669 38.3319 1.08166 38.1136 1.0594C37.8954 1.03714 37.6749 1.05809 37.4647 1.12106C37.2545 1.18402 37.0588 1.28776 36.8887 1.42637C36.7186 1.56497 36.5775 1.73571 36.4734 1.92884C36.3693 2.12198 36.3043 2.33373 36.2821 2.552C36.2598 2.77026 36.2808 2.99078 36.3437 3.20095L38.2849 9.66449Z" fill="#062A26"/>
<path d="M50.1599 10.0236C50.6029 10.0236 51.0278 9.84758 51.3411 9.53428C51.6544 9.22098 51.8305 8.79606 51.8305 8.35299V1.6706C51.8305 1.22753 51.6544 0.802604 51.3411 0.489307C51.0278 0.176009 50.6029 0 50.1599 0C49.7168 0 49.2919 0.176009 48.9786 0.489307C48.6653 0.802604 48.4893 1.22753 48.4893 1.6706V8.35299C48.4893 8.79606 48.6653 9.22098 48.9786 9.53428C49.2919 9.84758 49.7168 10.0236 50.1599 10.0236Z" fill="#062A26"/>
<path d="M27.451 61.9177C18.2306 57.71 10.1391 51.3762 3.84048 43.4359C7.05052 39.4265 10.7084 35.7972 14.7428 32.6187C15.0915 32.3451 15.3172 31.9442 15.3703 31.5042C15.4234 31.0642 15.2996 30.6211 15.026 30.2724C14.7524 29.9237 14.3515 29.698 13.9114 29.6449C13.4714 29.5918 13.0283 29.7156 12.6796 29.9892C8.08905 33.6102 3.9622 37.783 0.392361 42.4135C0.165863 42.7061 0.0429688 43.0658 0.0429688 43.4359C0.0429688 43.806 0.165863 44.1656 0.392361 44.4583C7.14365 53.3027 15.97 60.3475 26.0912 64.9699C26.4959 65.1502 26.9557 65.1623 27.3694 65.0037C27.7831 64.845 28.1169 64.5284 28.2972 64.1237C28.4775 63.719 28.4897 63.2592 28.331 62.8454C28.1723 62.4317 27.8558 62.098 27.451 61.9177Z" fill="#062A26"/>
<path d="M99.9282 44.458C100.155 44.1653 100.278 43.8057 100.278 43.4356C100.278 43.0655 100.155 42.7059 99.9282 42.4132C87.2785 26.0748 69.1374 16.7061 50.1595 16.7061C38.7062 16.7523 27.5061 20.0795 17.8852 26.2936C17.5117 26.532 17.2482 26.909 17.1526 27.3416C17.057 27.7743 17.1373 28.2272 17.3756 28.6007C17.614 28.9742 17.991 29.2377 18.4237 29.3333C18.8563 29.4288 19.3092 29.3486 19.6827 29.1102C23.9226 26.406 28.4953 24.2631 33.2864 22.7352C30.1945 25.2471 27.7046 28.4198 25.9997 32.0202C24.2948 35.6205 23.4181 39.5571 23.4341 43.5407C23.4502 47.5244 24.3584 51.4538 26.0923 55.0403C27.8261 58.6269 30.3415 61.7794 33.4535 64.2663V66.824C32.1243 66.824 30.8495 67.352 29.9096 68.2919C28.9697 69.2318 28.4417 70.5066 28.4417 71.8358C28.4417 73.165 28.9697 74.4398 29.9096 75.3796C30.8495 76.3195 32.1243 76.8476 33.4535 76.8476H66.8654C67.3085 76.8476 67.7334 77.0236 68.0467 77.3369C68.36 77.6502 68.536 78.0751 68.536 78.5182C68.536 78.9612 68.36 79.3862 68.0467 79.6995C67.7334 80.0128 67.3085 80.1888 66.8654 80.1888H33.4535C33.0104 80.1888 32.5855 80.3648 32.2722 80.6781C31.9589 80.9914 31.7829 81.4163 31.7829 81.8594C31.7829 82.3024 31.9589 82.7274 32.2722 83.0406C32.5855 83.354 33.0104 83.53 33.4535 83.53C33.4535 87.9607 35.2136 92.2099 38.3465 95.3429C41.4795 98.4758 45.7288 100.236 50.1595 100.236C54.5902 100.236 58.8394 98.4758 61.9724 95.3429C65.1053 92.2099 66.8654 87.9607 66.8654 83.53C67.8348 83.5342 68.7843 83.2561 69.5982 82.7296C70.412 82.203 71.0549 81.4508 71.4483 80.5649C71.8416 79.679 71.9684 78.6976 71.8132 77.7408C71.658 76.784 71.2274 75.8931 70.5742 75.177C71.2274 74.4608 71.658 73.5699 71.8132 72.6131C71.9684 71.6563 71.8416 70.675 71.4483 69.789C71.0549 68.9031 70.412 68.1509 69.5982 67.6244C68.7843 67.0978 67.8348 66.8197 66.8654 66.824V64.2663C70.0017 61.7773 72.533 58.6098 74.2691 55.0019C76.0052 51.394 76.901 47.4395 76.889 43.4356C76.8851 41.5165 76.6756 39.6033 76.2642 37.7289C76.2194 37.5127 76.1321 37.3075 76.0075 37.1252C75.8828 36.943 75.7233 36.7872 75.5381 36.667C75.3529 36.5467 75.1457 36.4644 74.9285 36.4248C74.7113 36.3851 74.4883 36.3889 74.2726 36.436C74.0569 36.483 73.8526 36.5723 73.6716 36.6988C73.4906 36.8253 73.3364 36.9864 73.2181 37.1728C73.0997 37.3592 73.0195 37.5672 72.9821 37.7848C72.9446 38.0024 72.9507 38.2253 72.9999 38.4405C73.3606 40.0812 73.5443 41.7558 73.5478 43.4356C73.5574 47.0637 72.716 50.6435 71.0913 53.8875C69.4665 57.1315 67.1037 59.9493 64.1925 62.1146C63.985 62.2702 63.8166 62.472 63.7006 62.7039C63.5846 62.9359 63.5242 63.1917 63.5242 63.451V66.824H56.8418V54.9961C59.5814 53.4235 61.6721 50.9276 62.7403 47.9548C63.8084 44.982 63.7843 41.7263 62.6722 38.7696C62.5624 38.4762 62.3723 38.2195 62.1235 38.029C61.8748 37.8385 61.5775 37.7217 61.2656 37.6921C60.9536 37.6599 60.6389 37.7171 60.3582 37.857C60.0775 37.997 59.8423 38.2138 59.6802 38.4823C59.3868 38.9734 58.9711 39.3801 58.4736 39.6626C57.9762 39.9452 57.4139 40.094 56.8418 40.0944C55.9557 40.0944 55.1059 39.7424 54.4793 39.1158C53.8527 38.4892 53.5007 37.6394 53.5007 36.7532C53.5007 36.181 53.649 35.6186 53.9313 35.1208C54.2136 34.623 54.6201 34.207 55.1111 33.9132C55.3784 33.7498 55.5943 33.5145 55.7342 33.2342C55.8742 32.954 55.9325 32.64 55.9025 32.3282C55.8726 32.0163 55.7555 31.7192 55.5648 31.4707C55.374 31.2222 55.1172 31.0324 54.8238 30.9228C52.8035 30.163 50.629 29.9049 48.487 30.1707C46.345 30.4366 44.2995 31.2184 42.5263 32.4491C40.7531 33.6797 39.3051 35.3224 38.3068 37.2361C37.3084 39.1498 36.7895 41.2772 36.7947 43.4356C36.804 45.7779 37.4255 48.0771 38.5977 50.105C39.7699 52.1329 41.452 53.819 43.4771 54.9961V66.824H36.7947V63.4477C36.7947 63.1884 36.7343 62.9326 36.6183 62.7006C36.5023 62.4686 36.3339 62.2668 36.1264 62.1112C33.3245 60.0042 31.0325 57.2938 29.4201 54.1809C27.8077 51.0679 26.9162 47.6322 26.8116 44.128C26.707 40.6238 27.392 37.1409 28.8159 33.9374C30.2398 30.7338 32.3661 27.8916 35.0373 25.6211C37.7085 23.3507 40.8563 21.7103 44.2474 20.8213C47.6386 19.9323 51.1863 19.8175 54.6278 20.4855C58.0694 21.1534 61.3166 22.587 64.129 24.68C66.9413 26.773 69.2469 29.4719 70.8749 32.5767C70.9769 32.771 71.1162 32.9433 71.2847 33.0837C71.4533 33.2241 71.6479 33.33 71.8574 33.3952C72.067 33.4605 72.2872 33.4838 72.5058 33.4639C72.7243 33.444 72.9367 33.3812 73.131 33.2792C73.3253 33.1772 73.4975 33.0379 73.638 32.8693C73.7784 32.7007 73.8843 32.5061 73.9495 32.2966C74.0147 32.0871 74.0381 31.8668 74.0182 31.6483C73.9983 31.4298 73.9355 31.2173 73.8335 31.0231C72.1622 27.8397 69.8681 25.0247 67.0876 22.7453C78.6945 26.6246 88.9117 33.8172 96.4784 43.4356C90.1798 51.3759 82.0883 57.7098 72.8679 61.9174C72.6675 62.0067 72.4866 62.1346 72.3356 62.2938C72.1847 62.453 72.0665 62.6404 71.9879 62.8452C71.9094 63.0501 71.8719 63.2684 71.8777 63.4877C71.8835 63.707 71.9324 63.923 72.0217 64.1235C72.111 64.3239 72.2389 64.5047 72.3981 64.6557C72.5573 64.8067 72.7446 64.9249 72.9495 65.0034C73.1543 65.082 73.3727 65.1194 73.592 65.1136C73.8113 65.1078 74.0273 65.0589 74.2278 64.9696C84.3495 60.3475 93.1765 53.3027 99.9282 44.458ZM50.1595 96.8947C46.6161 96.8908 43.219 95.4814 40.7135 92.9759C38.208 90.4704 36.7987 87.0733 36.7947 83.53H63.5242C63.5203 87.0733 62.1109 90.4704 59.6054 92.9759C57.0999 95.4814 53.7028 96.8908 50.1595 96.8947ZM68.536 71.8358C68.536 72.2788 68.36 72.7038 68.0467 73.0171C67.7334 73.3304 67.3085 73.5064 66.8654 73.5064H33.4535C33.0104 73.5064 32.5855 73.3304 32.2722 73.0171C31.9589 72.7038 31.7829 72.2788 31.7829 71.8358C31.7829 71.3927 31.9589 70.9678 32.2722 70.6545C32.5855 70.3412 33.0104 70.1652 33.4535 70.1652H66.8654C67.3085 70.1652 67.7334 70.3412 68.0467 70.6545C68.36 70.9678 68.536 71.3927 68.536 71.8358ZM45.866 52.4802C43.8167 51.5013 42.1605 49.8554 41.1689 47.8121C40.1772 45.7689 39.9088 43.4495 40.4077 41.2338C40.9066 39.0181 42.1432 37.0375 43.9149 35.6164C45.6865 34.1954 47.8883 33.4182 50.1595 33.412C50.4518 33.412 50.7442 33.4254 51.0332 33.4505C50.3107 34.7224 50.0256 36.1964 50.2216 37.646C50.4176 39.0957 51.0838 40.441 52.1181 41.4755C53.1524 42.51 54.4976 43.1765 55.9472 43.3727C57.3968 43.569 58.8708 43.2841 60.143 42.5619C60.1697 42.8509 60.183 43.1433 60.183 43.4356C60.1752 45.3295 59.6334 47.1828 58.6199 48.7827C57.6063 50.3826 56.162 51.6642 54.4529 52.4802C54.1686 52.6156 53.9284 52.8286 53.7599 53.0946C53.5914 53.3607 53.5015 53.6689 53.5007 53.9838V66.824H46.8183V53.9888C46.8183 53.673 46.7289 53.3638 46.5604 53.0968C46.3918 52.8298 46.1511 52.616 45.866 52.4802Z" fill="#062A26"/>
<path d="M84.7545 66.1678C84.6126 66.0001 84.4392 65.8619 84.2439 65.7612C84.0487 65.6606 83.8356 65.5993 83.6167 65.581C83.3978 65.5627 83.1775 65.5877 82.9682 65.6545C82.759 65.7214 82.565 65.8288 82.3973 65.9706C82.2295 66.1125 82.0914 66.286 81.9907 66.4812C81.89 66.6764 81.8288 66.8895 81.8105 67.1084C81.7922 67.3273 81.8172 67.5477 81.884 67.7569C81.9509 67.9661 82.0583 68.1601 82.2001 68.3279L86.5921 73.5451C86.7336 73.7129 86.9068 73.8511 87.1017 73.9519C87.2966 74.0527 87.5095 74.1141 87.7281 74.1326C87.9468 74.1512 88.167 74.1265 88.3761 74.0599C88.5852 73.9934 88.7791 73.8863 88.9468 73.7448C89.1146 73.6033 89.2528 73.4301 89.3536 73.2352C89.4544 73.0403 89.5158 72.8274 89.5343 72.6088C89.5529 72.3901 89.5282 72.1699 89.4616 71.9608C89.3951 71.7517 89.288 71.5578 89.1465 71.3901L84.7545 66.1678Z" fill="#062A26"/>
<path d="M94.7395 57.6692C94.5728 57.5192 94.3777 57.4042 94.1656 57.3312C93.9536 57.2582 93.729 57.2287 93.5053 57.2443C93.2816 57.2599 93.0633 57.3205 92.8635 57.4223C92.6636 57.5241 92.4863 57.665 92.3422 57.8368C92.198 58.0086 92.0899 58.2077 92.0243 58.4221C91.9587 58.6366 91.9369 58.862 91.9603 59.0851C91.9837 59.3081 92.0517 59.5242 92.1604 59.7203C92.2691 59.9165 92.4161 60.0888 92.5928 60.2269L97.7717 64.5705C98.1122 64.8431 98.5459 64.9716 98.98 64.9287C99.4141 64.8857 99.8142 64.6747 100.095 64.3407C100.375 64.0067 100.514 63.5762 100.481 63.1412C100.449 62.7062 100.247 62.3012 99.92 62.0128L94.7395 57.6692Z" fill="#062A26"/>
<path d="M15.5651 66.1678L11.1731 71.3834C10.8874 71.7221 10.7478 72.1605 10.7853 72.6021C10.8227 73.0437 11.034 73.4523 11.3728 73.7381C11.7115 74.0239 12.1499 74.1634 12.5915 74.126C13.0331 74.0885 13.4417 73.8772 13.7275 73.5385L18.1195 68.3279C18.2642 68.1606 18.3742 67.9663 18.4432 67.7561C18.5121 67.546 18.5387 67.3243 18.5213 67.1038C18.504 66.8833 18.443 66.6685 18.3419 66.4718C18.2409 66.275 18.1018 66.1003 17.9327 65.9578C17.7636 65.8152 17.5679 65.7077 17.3569 65.6413C17.1459 65.575 16.9239 65.5512 16.7036 65.5714C16.4834 65.5916 16.2693 65.6553 16.0739 65.7588C15.8785 65.8623 15.7055 66.0036 15.5651 66.1745V66.1678Z" fill="#062A26"/>
<path d="M5.63326 57.6256L0.691629 61.4412C0.510258 61.5724 0.357095 61.7386 0.241233 61.9301C0.125371 62.1217 0.0491748 62.3345 0.0171683 62.556C-0.0148382 62.7775 -0.00200194 63.0032 0.0549147 63.2197C0.111831 63.4362 0.211668 63.639 0.348495 63.8161C0.485323 63.9933 0.656351 64.1411 0.851423 64.2509C1.0465 64.3606 1.26163 64.4301 1.48406 64.4551C1.70649 64.48 1.93167 64.4601 2.14624 64.3964C2.3608 64.3326 2.56037 64.2264 2.7331 64.0841L7.67473 60.2684C7.8561 60.1373 8.00926 59.971 8.12512 59.7795C8.24098 59.588 8.31718 59.3752 8.34919 59.1536C8.38119 58.9321 8.36836 58.7064 8.31144 58.4899C8.25452 58.2735 8.15469 58.0706 8.01786 57.8935C7.88103 57.7164 7.71001 57.5685 7.51493 57.4588C7.31986 57.349 7.10472 57.2796 6.88229 57.2546C6.65986 57.2296 6.43468 57.2496 6.22012 57.3133C6.00555 57.377 5.80598 57.4832 5.63326 57.6256Z" fill="#062A26"/>
</svg>
